<svg version="1.0" xmlns="http://www.w3.org/2000/svg" viewBox="0 0 512 512">
<path d="M142.8 101c-34.9 7.3-63.4 26.6-82.3 55.5-2.8 4.4-10.5 17.3-16.9 28.6-10.9 19.3-12 20.8-15.9 22.5-5.3 2.4-15.6 12-19.6 18.3-6.5 10.1-7.4 14.3-7.9 39-.4 24.9-.2 26.3 5.6 28.2 2.9 1 3.8.9 6.1-.8l2.6-2 .6-21.9c.6-19.2.9-22.6 2.8-27.6 2.9-7.6 10.7-16.1 18.2-19.8 3.2-1.7 6.9-4.4 8.2-6.2 1.3-1.8 8.3-13.8 15.6-26.5 7.3-12.8 15.2-25.9 17.6-29.1 5.5-7.3 16.1-17.8 24-23.7 12.9-9.7 33.7-18 50.9-20.4 4.8-.7 30-1.1 66.1-1.1 36.1 0 61.3.4 66.1 1.1 17.2 2.4 38 10.7 50.9 20.4 7.6 5.7 18.6 16.5 23.7 23.2 2.2 2.9 10.6 16.8 18.7 31 8.2 14.2 15.9 26.5 17.2 27.5 1.4 1 14.4 4.2 31.4 7.8 16 3.3 30.2 6.6 31.7 7.1 3.5 1.4 9.3 9.9 12.6 18.5 2.5 6.7 2.6 7.8 3 32.1l.4 25.3h-32.7l-6.5-7.2c-8.2-9.1-18.3-15.7-29.6-19.4-8-2.6-10.2-2.9-21.4-2.8-11 0-13.5.3-20.5 2.8-4.4 1.5-11.2 4.7-15.2 7.2-8 5-18.7 15.9-22.4 22.8l-2.4 4.6h-150l-2.4-4.6c-3.7-6.9-14.4-17.8-22.4-22.8-4-2.5-10.8-5.7-15.2-7.2-7-2.5-9.5-2.8-20.5-2.8-11.2-.1-13.4.2-21.4 2.8-11.3 3.7-21.4 10.3-29.6 19.4l-6.5 7.2H31.8c-23.9 0-27.9.5-30.4 3.8-1.9 2.4-1.9 36 0 38.4 2.4 3.2 6.5 3.8 25.7 3.8H46v2.4c0 4.1 4 15.8 7.8 22.6 4.9 9 17.7 21.6 26.7 26.2 10.5 5.5 20.1 7.8 32 7.8 12.2 0 19.2-1.7 30.5-7.2 10.4-5.1 22.7-16.7 28.2-26.8 3.8-6.8 7.8-18.5 7.8-22.6V354h139v2.4c0 4.1 4 15.8 7.8 22.6 4.9 9 17.7 21.6 26.7 26.2 10.5 5.5 20.1 7.8 32 7.8 12.2 0 19.2-1.7 30.5-7.2 10.4-5.1 22.7-16.7 28.2-26.8 3.8-6.8 7.8-18.5 7.8-22.6V354h26.4c26.8 0 30.7-.5 33.2-3.8 2.1-2.6 1.9-83.3-.1-92-4-17-17.8-32.5-33.4-37.7-2.7-.9-20.1-4.8-38.7-8.8l-33.9-7.3-14-24.2c-15.8-27.4-19.8-33.2-29.9-43.5-18.1-18.3-40.5-30.4-66.6-35.7-9.3-1.9-13.5-2-76.2-1.9-60.4 0-67.1.2-75 1.9zM47.9 324.7c0 .5-.6 3.5-1.3 6.8l-1.3 6-15.1.3-15.2.3V324h16.5c9.1 0 16.5.3 16.4.7zm76.9 2.5c13.1 8.7 13 28.9 0 37.6-3.7 2.4-5.1 2.7-12.3 2.7-7.2 0-8.6-.3-12.3-2.7-7.8-5.2-12-16.7-9.3-25.1 1.9-5.6 6.5-11.2 11.2-13.6 6.4-3.2 16.9-2.7 22.7 1.1zm272 0c13.1 8.7 13 28.9 0 37.6-3.7 2.4-5.1 2.7-12.3 2.7-7.2 0-8.6-.3-12.3-2.7-7.8-5.2-12-16.7-9.3-25.1 1.9-5.6 6.5-11.2 11.2-13.6 6.4-3.2 16.9-2.7 22.7 1.1zM497 331v7l-22.7-.2-22.6-.3-1.3-6c-.7-3.3-1.3-6.3-1.3-6.8-.1-.4 10.7-.7 23.9-.7h24v7z"/>
<path d="M152.5 129.1c-13.4 1.9-28.8 8-41 16.2-7.7 5.2-20.1 17.6-25.1 25.2-8.1 12-22.4 38.3-22.4 40.9 0 1.5 1.1 3.8 2.5 5.1l2.4 2.5h52.9c52 0 53 0 55.6-2.1l2.6-2v-82.8l-2.6-2c-2.2-1.8-4-2.1-10.8-2-4.4.1-10.8.5-14.1 1zM165 174v30h-39.5c-28.5 0-39.5-.3-39.5-1.1 0-2.1 12.5-23 17.3-29 13.3-16.5 38.3-29.7 56.5-29.8l5.2-.1v30zM197.6 130.1l-2.6 2v82.8l2.6 2c2.7 2.1 3.2 2.1 86.6 2.1h83.9l2.4-2.5c1.4-1.3 2.5-3.6 2.5-5.1 0-2.6-14.3-28.9-22.4-40.9-11.2-16.9-30.8-31.4-51.1-37.8-13-4.1-21.1-4.7-61.4-4.7-36.8 0-37.9.1-40.5 2.1zm96.9 17.2c16.5 5.8 29.9 15 39 26.5 5.8 7.2 18 28.1 17 29-.3.4-32.1.9-70.6 1.1l-69.9.3v-60.3l38.3.3 38.2.3 8 2.8zM197.6 235.1c-2 1.6-2.6 2.9-2.6 5.9 0 3 .6 4.3 2.6 5.9 2.5 1.9 4 2.1 19.9 2.1 15.9 0 17.4-.2 19.9-2.1 2-1.6 2.6-2.9 2.6-5.9 0-3-.6-4.3-2.6-5.9-2.5-1.9-4-2.1-19.9-2.1-15.9 0-17.4.2-19.9 2.1z"/>
<style>
    <style>
        svg { fill: #111; }

        @media (prefers-color-scheme: dark) {
            svg { fill: #FFF; }
        }
    </style>
</style>
</svg>